<svg width="62" height="62" viewBox="0 0 62 62" fill="none" xmlns="http://www.w3.org/2000/svg">
<path d="M54.25 43.125H54.75V42.625V31.5H57.625V42.625C57.625 43.5201 57.2694 44.3785 56.6365 45.0115C56.0035 45.6444 55.1451 46 54.25 46H38.75H38.25V46.5V54.25V54.75H38.75H46V57.625H16V54.75H23.25H23.75V54.25V46.5V46H23.25H7.75C6.8549 46 5.99645 45.6444 5.36351 45.0115C4.73058 44.3785 4.375 43.5201 4.375 42.625V11.625C4.375 10.7299 4.73058 9.87145 5.36351 9.23851C5.99645 8.60558 6.85489 8.25 7.75 8.25H30.5V11.125H7.75H7.25V11.625V42.625V43.125H7.75H54.25ZM34.875 54.75H35.375V54.25V46.5V46H34.875H27.125H26.625V46.5V54.25V54.75H27.125H34.875ZM40.3355 23.3145L40.6876 23.6635L41.0396 23.3144L55.0441 9.42332L57.4152 11.7795L40.6877 28.3584L31.7108 19.4533L34.08 17.114L40.3355 23.3145Z" fill="#11174A" stroke="#11174A"/>
</svg>
