<svg width="34" height="34" xmlns="http://www.w3.org/2000/svg" xmlns:xlink="http://www.w3.org/1999/xlink" xml:space="preserve" overflow="hidden"><g transform="translate(-506 -270)"><path d="M539.978 279.771C539.907 284.775 538.76 289.489 536.101 293.779 533.572 297.858 530.049 300.813 525.759 302.895 524.99 303.268 524.204 303.603 523.407 303.909 523.152 304.009 522.937 304.031 522.668 303.928 519.221 302.621 516.11 300.772 513.463 298.194 510.448 295.257 508.404 291.733 507.196 287.708 506.702 286.067 506.374 284.392 506.17 282.695 505.995 281.251 505.974 279.795 506.027 278.339 506.033 278.219 506.053 278.1 506.063 277.982 506.106 277.504 506.36 277.249 506.831 277.129 507.754 276.894 508.671 276.637 509.581 276.355 513.424 275.159 517.162 273.72 520.602 271.588 521.246 271.189 521.865 270.756 522.454 270.279 522.886 269.931 523.114 269.916 523.518 270.24 525.73 272.011 528.249 273.238 530.834 274.336 533.507 275.472 536.265 276.356 539.068 277.103 539.942 277.336 539.866 277.456 539.964 278.16 540.036 278.686 539.978 279.233 539.978 279.771ZM539.162 278.631C539.174 278.642 539.184 278.652 539.196 278.662 539.179 278.657 539.164 278.652 539.147 278.647L539.131 278.611 539.162 278.631ZM507.467 278.438C507.369 279.928 507.424 281.381 507.602 282.824 507.787 284.321 508.094 285.8 508.527 287.251 509.6 290.84 511.376 294.022 513.987 296.722 516.451 299.27 519.393 301.086 522.653 302.422 522.936 302.539 523.177 302.494 523.45 302.383 526.085 301.303 528.516 299.893 530.664 298.012 534.401 294.743 536.712 290.635 537.862 285.836 538.206 284.402 538.425 282.947 538.535 281.481 538.612 280.47 538.604 279.456 538.559 278.44 533.029 276.887 527.692 274.994 523.001 271.677 518.277 275.02 512.964 276.882 507.467 278.438Z" fill="#FFBF47"/><path d="M511.668 287.015C511.707 280.746 516.672 275.661 523.039 275.681 529.441 275.7 534.343 280.824 534.339 287.016 534.336 293.278 529.357 298.372 522.977 298.35 516.573 298.327 511.703 293.21 511.668 287.015ZM528.733 281.942C529.098 283.381 529.311 284.82 529.373 286.266 530.577 286.266 531.72 286.266 532.897 286.266 532.715 284.112 531.982 282.245 530.558 280.6 529.962 281.119 529.361 281.532 528.733 281.942ZM515.481 280.638C514.237 281.777 513.064 284.623 513.18 286.278 514.321 286.278 515.462 286.278 516.657 286.278 516.679 284.789 516.939 283.357 517.279 281.918 516.626 281.549 516.072 281.099 515.481 280.638ZM517.292 292.091C516.902 290.64 516.711 289.214 516.643 287.758 515.456 287.758 514.313 287.758 513.174 287.758 513.057 289.483 514.421 292.641 515.531 293.371 516.065 292.908 516.646 292.497 517.292 292.091ZM530.563 293.431C531.98 291.772 532.725 289.91 532.89 287.799 532.222 287.683 529.801 287.702 529.359 287.822 529.323 289.262 529.08 290.681 528.735 292.1 529.371 292.492 529.945 292.912 530.563 293.431ZM522.298 286.286C522.298 285.771 522.309 285.315 522.295 284.861 522.281 284.393 522.364 283.919 522.228 283.441 520.972 283.357 519.787 283.065 518.641 282.608 518.269 283.465 518.005 285.557 518.18 286.286 519.523 286.286 520.868 286.286 522.298 286.286ZM523.743 286.268C525.161 286.268 526.522 286.268 527.909 286.268 527.966 284.989 527.714 283.799 527.426 282.591 526.215 283.081 525.005 283.35 523.743 283.46 523.743 284.41 523.743 285.317 523.743 286.268ZM522.266 287.76C520.866 287.76 519.506 287.76 518.151 287.76 518.034 288.654 518.288 290.563 518.634 291.421 519.204 291.21 519.782 291.015 520.373 290.866 520.986 290.714 521.615 290.657 522.266 290.57 522.266 289.634 522.266 288.728 522.266 287.76ZM527.879 287.765C526.481 287.765 525.12 287.765 523.719 287.765 523.722 288.726 523.705 289.648 523.731 290.59 525.048 290.669 526.241 290.981 527.401 291.418 527.736 290.443 527.964 288.694 527.879 287.765ZM527.005 281.231C526.654 280.254 526.206 279.399 525.607 278.621 525.249 278.159 524.831 277.771 524.327 277.473 524.149 277.367 523.967 277.268 523.75 277.261 523.75 278.851 523.75 280.396 523.75 281.988 524.889 281.995 525.913 281.666 527.005 281.231ZM523.75 296.78C525.091 296.366 526.751 294.27 526.921 292.769 525.919 292.36 524.891 292.041 523.75 292.041 523.75 293.65 523.75 295.213 523.75 296.78ZM519.079 281.253C520.095 281.671 521.132 281.996 522.276 281.986 522.276 280.369 522.276 278.822 522.276 277.269 520.981 277.6 519.346 279.634 519.079 281.253ZM518.992 292.816C519.716 294.491 520.448 296.066 522.266 296.828 522.266 295.213 522.266 293.65 522.266 292.043 521.125 292.046 520.097 292.358 518.992 292.816ZM528.269 280.561C528.744 280.235 529.164 279.98 529.535 279.576 528.759 278.846 527.916 278.315 526.947 277.967 527.454 278.777 527.894 279.606 528.269 280.561ZM529.537 294.457C529.133 294.046 528.737 293.77 528.269 293.491 527.899 294.418 527.442 295.25 526.955 296.078 527.904 295.696 528.764 295.197 529.537 294.457ZM517.748 280.552C518.104 279.617 518.572 278.787 519.06 277.958 518.101 278.34 517.231 278.834 516.49 279.581 516.869 279.988 517.279 280.247 517.748 280.552ZM519.071 296.064C518.539 295.252 518.128 294.39 517.734 293.489 517.273 293.813 516.811 294.034 516.506 294.491 517.275 295.19 518.108 295.72 519.071 296.064Z" fill="#FFBF47"/></g></svg>