<svg width="25" height="37" xmlns="http://www.w3.org/2000/svg" xmlns:xlink="http://www.w3.org/1999/xlink" xml:space="preserve" overflow="hidden"><g transform="translate(-70 -272)"><path d="M24.6729 24.3361C24.931 25.7893 25.0749 27.2602 24.8264 28.7176 24.3632 31.4299 22.9792 33.5853 20.5562 34.9259 16.8633 36.9686 13.0318 37.099 9.25743 35.2206 5.81713 33.5093 4.27151 30.5471 4.35436 26.7564 4.40325 24.5751 4.9085 22.4658 5.70983 20.4313 5.78861 20.2303 5.92307 20.0401 5.90134 19.7875 5.67588 19.7304 5.46129 19.6775 5.20866 19.6136 5.02395 20.5549 4.39918 20.7858 3.54759 20.7246 2.93912 20.6812 2.32386 20.6866 1.71539 20.7219 0.312384 20.8048-0.00407457 20.3552 0 19.031 0.00950734 16.2467 0.00135819 13.4624 0.00407457 10.6781 0.00407457 10.4526 0.00679095 10.2245 0.0434621 10.0031 0.161625 9.27237 0.493023 8.98443 1.2278 8.97628 2.08754 8.96677 2.94863 8.97085 3.80837 8.97493 4.6518 8.979 4.86776 9.13519 5.1489 9.93109 5.17878 10.0139 5.18014 10.1104 5.29015 10.1375 6.72984 9.85096 8.81602 8.37325 9.61192 7.06259 9.53042 6.91727 9.44486 6.75972 9.35386 6.60624 8.83775 5.72885 8.27138 4.88134 7.65612 4.07186 7.36275 3.68749 7.37498 3.35066 7.60587 2.95271 8.33114 1.70589 9.75045 1.22509 11.1222 1.75478 11.3436 1.84035 11.527 2.04951 11.7864 2.01556 12.0078 1.70453 12.1993 1.39486 12.4302 1.11915 13.0413 0.389801 13.7992-0.0516112 14.7866 0.00543276 15.6844 0.057044 16.3635 0.51068 16.9135 1.18298 17.1377 1.45734 17.3237 1.76293 17.522 2.04544 19.6041 1.06075 21.1593 1.58772 21.8533 3.50142 21.6808 4.17644 21.0832 4.63143 20.798 5.29423 21.3494 5.38794 21.8737 5.28744 22.3857 5.42054 23.168 5.62563 23.7154 6.24768 23.7792 7.05444 23.82 7.55697 23.786 8.04728 23.4967 8.5145 24.0631 8.89072 24.4461 9.38102 24.5642 10.037 24.6892 10.7324 24.3822 11.311 23.9938 11.8652 24.8454 13.0155 24.7843 14.0953 23.7806 15.0718 24.5683 16.6039 24.2356 17.6578 22.6967 18.4184 23.6189 20.3267 24.3075 22.2784 24.6729 24.3361ZM20.4503 18.4021C19.1885 18.5189 18.011 17.412 18.542 15.6627 18.5746 15.5554 18.6235 15.4535 18.6643 15.3489 17.4582 14.7146 16.866 13.4936 17.9037 11.857 16.9366 10.3861 17.3319 9.33485 18.4266 8.50907 18.1875 8.13149 18.1414 7.69279 18.1495 7.24052 18.1617 6.46499 18.5054 5.89047 19.1967 5.555 19.5009 5.40696 19.6938 5.19508 19.8663 4.91937 20.1651 4.43993 20.491 3.97814 20.8048 3.51092 20.4109 2.31707 18.8503 2.24237 18.0273 2.90653 17.8208 3.07359 17.6701 3.32349 17.3726 3.38461 17.0562 3.32621 16.8891 3.11569 16.7614 2.82504 16.5604 2.37004 16.32 1.93542 15.9574 1.57822 15.1262 0.761945 14.0681 0.767378 13.2587 1.59859 12.9069 1.95987 12.657 2.3877 12.4587 2.84677 12.3595 3.0763 12.2699 3.3167 11.9439 3.36967 11.637 3.38733 11.4591 3.12384 11.2404 2.93777 10.4255 2.24237 8.97357 2.31707 8.44387 3.48376 9.04827 4.42227 9.73551 5.34176 10.3345 6.40115 10.6849 6.0684 11.0013 5.76688 11.3327 5.45314 13.4542 5.45314 15.5784 5.45314 17.6782 5.45314 17.9892 5.60118 18.083 5.8375 18.0436 6.13495 17.9689 6.69452 17.9254 7.26089 17.7461 7.80009 17.34 9.0211 16.4667 9.65402 15.1547 9.70427 14.659 9.72329 14.1591 9.68662 13.6607 9.81564 12.2251 11.3355 10.947 12.9748 9.817 14.7255 8.46832 16.8171 7.22829 18.9685 6.38893 21.325 5.67995 23.3174 5.20051 25.3547 5.29015 27.4871 5.42461 30.6938 6.97974 32.9959 9.81293 34.4396 11.1793 35.1364 12.6502 35.4447 14.1877 35.4868 15.861 35.5316 17.4799 35.298 19.0147 34.6257 21.6156 33.4848 23.278 31.544 23.8172 28.7352 23.9598 27.991 23.9558 27.2168 23.9218 26.4399 23.8064 23.7452 22.9792 21.2611 21.8343 18.8585 21.7677 18.7186 21.6862 18.5841 21.5871 18.3981 21.1715 18.3967 20.8075 18.3695 20.4503 18.4021ZM5.18557 18.5339C5.56858 18.7811 5.97332 18.7716 6.44462 18.7797 8.31349 15.2117 10.3399 11.7185 13.2994 8.87306 13.7001 8.76712 14.1089 8.82824 14.5123 8.82009 14.8518 8.8133 15.1873 8.79428 15.5228 8.72909 16.1842 8.59871 16.6175 8.21298 16.8348 7.59093 16.9679 7.21199 17.1146 6.82763 17.0399 6.34003 15.2769 6.28842 13.5235 6.36177 11.7674 6.41202 11.3572 6.71761 11.0448 7.10741 10.6971 7.46054 9.93517 8.23335 9.20582 9.0374 8.3488 9.71242 7.43066 10.435 6.44597 11.0027 5.18421 11.0991 5.18557 13.624 5.18557 16.0837 5.18557 18.5339ZM3.62909 19.7467C3.78528 19.7467 3.94554 19.7685 4.13841 19.6544 4.13841 16.4789 4.13841 13.275 4.13841 10.0343 3.65489 9.86182 3.13335 9.97184 2.62538 9.95282 2.10655 9.93381 1.58772 9.94875 1.08248 9.94875 0.919495 10.4458 0.8706 18.6738 1.02543 19.7467 1.91369 19.7467 2.77071 19.7481 3.62909 19.7467ZM22.4767 11.4224C23.1884 11.4047 23.6054 10.9986 23.6026 10.3508 23.5999 9.70563 23.1843 9.31719 22.4536 9.30904 21.4594 9.29817 20.4652 9.29546 19.471 9.3104 18.7525 9.32126 18.3329 9.7328 18.3396 10.3779 18.3464 11.0122 18.777 11.4088 19.4955 11.4237 19.9926 11.4346 20.4897 11.4251 20.9868 11.4251 21.4825 11.4237 21.9796 11.4346 22.4767 11.4224ZM22.5949 14.4104C23.1802 14.3846 23.5497 14.0355 23.6013 13.514 23.661 12.9218 23.3894 12.5375 22.785 12.3826 22.6125 12.3378 22.4305 12.3134 22.2526 12.312 21.3956 12.3052 20.5386 12.3134 19.6815 12.3066 19.4276 12.3052 19.1844 12.3555 18.9563 12.4478 18.4999 12.6339 18.2568 13.1133 18.3451 13.6077 18.4266 14.0695 18.7851 14.4063 19.2809 14.4267 19.8432 14.4498 20.4082 14.4321 20.9718 14.4321 20.9718 14.4267 20.9718 14.4226 20.9718 14.4172 21.5124 14.4158 22.0543 14.4349 22.5949 14.4104ZM19.96 6.3088C19.4493 6.34954 19.1193 6.71897 19.0771 7.25138 19.0405 7.72539 19.308 8.19804 19.7549 8.2999 20.5535 8.48326 21.3698 8.47104 22.1697 8.31349 22.637 8.22113 22.9575 7.69008 22.9059 7.23508 22.8475 6.72712 22.4903 6.36177 21.9891 6.30336 21.9443 6.29793 21.8995 6.29793 21.8533 6.29793 21.5599 6.29793 21.2666 6.29793 20.9732 6.29793 20.9732 6.29929 20.9732 6.30201 20.9732 6.30336 20.6364 6.30472 20.2968 6.28299 19.96 6.3088ZM20.2343 15.4141C19.6815 15.4603 19.3814 15.8406 19.3909 16.4395 19.4004 17.0032 19.6938 17.378 20.2221 17.3998 20.9447 17.4297 21.6699 17.431 22.3911 17.3971 22.9086 17.3726 23.1993 16.9815 23.202 16.4192 23.2047 15.8705 22.9045 15.4657 22.4034 15.4182 22.0231 15.3815 21.636 15.4114 21.2516 15.4114 21.2516 15.41 21.2516 15.41 21.2516 15.4087 20.9121 15.4087 20.5712 15.3869 20.2343 15.4141Z" fill="#FFBF47" transform="matrix(1 0 0 1.01234 70.0223 272)"/><path d="M7.00147 25.1564C7.00691 21.1905 10.238 17.5356 14.6481 17.5451 18.921 17.5546 22.3341 21.1049 22.2866 25.2488 22.239 29.4415 18.7471 32.8764 14.5897 32.8166 10.4051 32.8587 6.99604 29.2948 7.00147 25.1564ZM7.92233 25.1754C7.93863 29.3057 11.2227 31.9256 14.6413 31.9107 18.1047 31.8958 21.344 29.2826 21.3616 25.1727 21.3793 21.1497 18.0422 18.4252 14.6046 18.4863 11.2268 18.4402 7.90603 21.1525 7.92233 25.1754Z" fill="#FFBF47" transform="matrix(1 0 0 1.01234 70.0223 272)"/><path d="M20.3131 25.3914C20.1352 28.9675 17.1526 31.0659 14.2651 30.854 10.9728 30.6123 8.81058 27.8864 8.97221 24.9147 9.15828 21.4934 11.986 19.4167 14.8111 19.5254 17.9499 19.6163 20.4693 22.2268 20.3131 25.3914ZM19.395 25.1401C19.38 22.8774 17.5954 20.4476 14.6155 20.4421 11.7062 20.4381 9.88627 22.9222 9.89306 25.1917 9.90121 27.7302 12.0947 30.0337 14.6318 29.9046 17.2993 30.0065 19.4113 27.6609 19.395 25.1401Z" fill="#FFBF47" transform="matrix(1 0 0 1.01234 70.0223 272)"/><path d="M15.137 27.7614C15.1058 27.9855 15.0786 28.1838 15.0528 28.3712 14.7798 28.6415 14.5299 28.6456 14.2922 28.4229 14.1551 28.2123 14.2352 27.9923 14.1523 27.7601 13.5194 27.4463 12.7887 27.172 12.7262 26.3136 12.7806 26.0324 12.9531 25.9387 13.1649 25.8749 13.3483 25.8939 13.4828 25.9672 13.5887 26.1465 13.9513 26.7577 14.5313 26.9519 15.1859 26.7075 15.4087 26.6246 15.5866 26.4969 15.6396 26.2172 15.5947 25.8722 15.2946 25.8111 15.0148 25.7309 14.6033 25.6128 14.1714 25.5951 13.7598 25.4593 13.1948 25.2732 12.7982 24.9486 12.7344 24.3333 12.6678 23.7004 12.9694 23.2454 13.5045 22.9385 13.7001 22.8258 13.9106 22.7429 14.1252 22.641 14.2705 22.4577 14.1388 22.201 14.28 21.981 14.3683 21.8764 14.4905 21.7827 14.6508 21.7691 14.8043 21.7799 14.9116 21.8601 15.0066 21.9592 15.1574 22.1521 15.042 22.4088 15.1832 22.6438 15.3353 22.7144 15.5228 22.7904 15.6993 22.8855 16.0457 23.0716 16.3309 23.3269 16.4898 23.695 16.5822 23.9096 16.6188 24.1364 16.4572 24.3361 16.3092 24.5208 16.1136 24.5289 15.8542 24.4243 15.5689 23.7425 15.0488 23.4166 14.2624 23.6366 13.7965 23.767 13.7503 23.8267 13.7177 24.3225 13.844 24.5411 14.0641 24.5873 14.2882 24.6321 14.6644 24.7082 15.0406 24.7843 15.4127 24.8766 16.0986 25.0464 16.483 25.424 16.555 25.974 16.6392 26.6178 16.3689 27.1163 15.7319 27.4708 15.5377 27.5821 15.3326 27.6691 15.137 27.7614Z" fill="#FFBF47" transform="matrix(1 0 0 1.01234 70.0223 272)"/></g></svg>