<svg width="34" height="20" xmlns="http://www.w3.org/2000/svg" xmlns:xlink="http://www.w3.org/1999/xlink" xml:space="preserve" overflow="hidden"><defs><clipPath id="clip0"><rect x="506" y="191" width="34" height="20"/></clipPath></defs><g clip-path="url(#clip0)" transform="translate(-506 -191)"><path d="M26.3115 15.6936C26.0018 17.0406 25.1516 17.6212 23.8252 17.4936 23.4706 17.96 23.2155 18.4872 22.6434 18.7021 22.109 18.9025 21.5722 18.8588 21.073 18.7386 20.8556 18.7993 20.7936 18.9621 20.7001 19.0884 20.1378 19.8451 19.4151 20.0892 18.5114 19.794 17.954 19.6119 17.4098 19.3944 16.8584 19.194 16.6325 19.1114 16.4041 19.0313 16.177 18.9511 15.7677 19.2074 15.4568 19.5961 14.9709 19.6592 14.4815 19.7224 14.0041 19.7066 13.5669 19.4236 13.1551 19.1576 12.928 18.7616 12.7397 18.2697 11.6818 18.2722 10.8802 17.8276 10.5073 16.8329 8.91503 16.539 8.9041 16.5317 8.14985 15.3377 7.56685 15.2855 6.96077 15.2078 6.47494 14.7219 5.99518 14.241 5.80327 13.6798 5.82028 12.9912 5.19963 12.6037 4.53525 12.3389 3.86359 12.0657 3.67897 12.3268 3.66682 12.5964 3.60245 12.8454 3.52472 13.1491 3.36682 13.3325 3.03281 13.3835 2.20568 13.5086 1.38219 13.5244 0.558708 13.3738 0.132389 13.296-0.0340083 13.0847 0.00485833 12.7252 0.0449395 12.3596 0.242916 12.1823 0.661947 12.1665 1.02632 12.1531 1.3907 12.1653 1.75507 12.1604 1.95426 12.158 2.16196 12.192 2.34536 12.0778 2.56763 11.6563 4.60812 2.09394 4.61663 1.43321 4.47331 1.27531 4.27897 1.33483 4.10529 1.33361 3.07289 1.32754 2.04171 1.33118 1.00932 1.32997 0.847778 1.32997 0.682595 1.33604 0.525914 1.3081 0.234414 1.25466 0.0206479 0.999601 0.00364375 0.717818-0.0157896 0.4081 0.194333 0.120244 0.510124 0.0534416 0.666805 0.0206479 0.831989 0.0267208 0.993528 0.0267208 2.3903 0.0255062 3.78585 0.0255062 5.18262 0.0255062 5.264 0.0255062 5.34416 0.0230771 5.42554 0.0279354 5.97453 0.0643728 6.21866 0.359516 6.14214 0.915795 6.10327 1.19515 6.03526 1.47207 5.97574 1.749 5.94173 1.90689 5.88829 2.06357 6.00611 2.24333 6.29761 2.41095 6.61097 2.32592 6.91704 2.22147 8.31381 1.74414 9.70572 1.25709 11.1025 0.780976 11.7912 0.546562 12.4774 0.296358 13.1794 0.109312 13.7697-0.0473687 14.3843-0.0218625 14.9831 0.104454 15.8224 0.280568 16.6046 0.604862 17.3309 1.05912 17.5021 1.166 17.6576 1.2996 17.8786 1.33847 18.1592 1.30082 18.2989 1.0579 18.4762 0.873284 19.1989 0.120244 20.0406-0.166398 21.0596 0.182187 22.9143 0.818628 24.7702 1.45143 26.6285 2.07815 27.0585 2.22268 27.4872 2.45588 27.9354 2.26884 28.0836 2.08787 28.0326 1.92997 27.9985 1.77208 27.9402 1.49515 27.871 1.21944 27.8297 0.940086 27.7423 0.3498 27.9864 0.0582999 28.5791 0.0267208 28.6398 0.0230771 28.7006 0.0255062 28.7613 0.0255062 30.1775 0.0255062 31.5949 0.0255062 33.0111 0.0267208 33.152 0.0267208 33.2966 0.0218625 33.435 0.0473687 33.752 0.108098 33.9743 0.386237 33.9682 0.691097 33.9621 0.997172 33.7326 1.26195 33.4083 1.31175 33.2492 1.33604 33.0852 1.32754 32.9237 1.32754 31.952 1.32875 30.9803 1.32875 30.0099 1.32875 29.8095 1.32875 29.6091 1.32875 29.3953 1.32875 29.2848 1.64819 29.3674 1.91904 29.4245 2.18989 29.7281 3.63403 30.0281 5.07817 30.3378 6.52109 30.5965 7.72474 30.8686 8.92596 31.1297 10.1296 31.233 10.6033 31.3229 11.0794 31.4139 11.5567 31.448 11.7365 31.4698 11.9175 31.6034 12.062 31.8014 12.198 32.0297 12.1531 32.2484 12.158 32.6322 12.1653 33.0184 12.1482 33.401 12.1701 33.752 12.1908 33.9427 12.4094 33.9634 12.7592 33.9828 13.0798 33.8383 13.29 33.4909 13.3568 32.6297 13.5219 31.765 13.5147 30.8978 13.375 30.5892 13.3252 30.4423 13.1442 30.3718 12.8673 30.3075 12.6159 30.2431 12.3644 30.1654 12.062 29.4342 12.3037 28.7953 12.6171 28.1358 12.9839 28.3034 14.4074 27.7581 15.3693 26.3115 15.6936ZM16.9871 17.8033C17.6309 18.0912 18.2357 18.3633 18.8819 18.5284 19.2803 18.6293 19.539 18.5248 19.7029 18.2187 19.8378 17.9685 19.7965 17.7803 19.4722 17.4851 19.0094 17.0637 18.5212 16.6701 18.0535 16.2535 17.7365 15.9718 17.4171 15.6888 17.1317 15.3766 16.9216 15.1458 16.9471 14.7426 17.1317 14.5349 17.3114 14.3321 17.7037 14.2932 17.9722 14.4596 18.0572 14.5118 18.1264 14.5896 18.2029 14.6551 19.0774 15.4045 19.9507 16.1552 20.8277 16.9021 21.0426 17.0855 21.2588 17.2714 21.4957 17.4244 21.7471 17.5884 22.0896 17.5434 22.2864 17.3612 22.4953 17.1681 22.5426 16.7904 22.3702 16.522 22.2839 16.3884 22.1625 16.2742 22.0495 16.16 21.2928 15.4009 20.5337 14.643 19.7746 13.8851 19.5317 13.6422 19.2924 13.3968 19.2086 13.064 19.5013 12.2928 19.9507 12.1871 20.524 12.7361 20.5969 12.8066 20.6673 12.8782 20.739 12.9499 21.6548 13.8657 22.5706 14.7815 23.4864 15.696 23.586 15.7956 23.6819 15.9037 23.79 15.9924 24.0973 16.2438 24.4738 16.2487 24.7277 16.0143 25.0022 15.7604 25.0265 15.43 24.7726 15.0888 24.6402 14.9114 24.4848 14.7487 24.3281 14.592 23.6273 13.8936 22.9119 13.211 22.2232 12.5005 21.9912 12.2612 21.6949 12.0438 21.656 11.6709 21.9584 10.9592 22.392 10.8632 22.9422 11.3831 23.0309 11.4669 23.1147 11.5543 23.2009 11.6393 23.9309 12.3693 24.6584 13.1005 25.3908 13.828 25.5196 13.9555 25.6483 14.0892 25.7977 14.1887 26.0856 14.3819 26.3771 14.3454 26.6285 14.111 26.8483 13.9057 26.8993 13.6349 26.7463 13.3361 26.6734 13.1952 26.5726 13.0616 26.4597 12.9487 24.6317 11.1146 22.8013 9.28183 20.9661 7.45389 20.6066 7.09559 20.5058 7.08466 20.0576 7.30207 19.4394 7.60085 18.8333 7.92393 18.2114 8.21422 16.9422 8.80693 15.4252 8.47414 14.5094 7.41867 13.9434 6.76522 13.896 5.93566 14.4596 5.26886 15.1507 4.45144 15.8928 3.67775 16.6082 2.88099 16.7357 2.73888 16.9483 2.6405 16.9106 2.39637 16.3471 1.92268 15.6062 1.60689 14.7863 1.4162 14.1705 1.27288 13.5815 1.32147 12.996 1.52187 11.1231 2.16439 9.25269 2.81419 7.3798 3.45427 7.03486 3.57209 6.68142 3.65103 6.30975 3.64132 6.07291 3.63524 5.82149 3.58423 5.54335 3.79071 5.0891 6.04255 4.53646 8.33082 4.10043 10.6822 4.91298 11.0612 5.67696 11.4171 6.46036 11.7814 7.04943 11.2652 7.57535 10.6932 8.44134 10.7078 9.31584 10.7235 9.82718 11.2665 10.3069 11.9017 11.5434 11.5968 12.5333 11.8665 13.0774 13.1333 13.7649 13.0859 14.3867 13.1734 14.9248 13.6179 15.5041 14.0977 15.5126 14.7766 15.5794 15.4701 16.7418 15.8224 17.1025 16.675 16.9871 17.8033ZM28.4188 3.7652C28.1188 3.61095 27.9135 3.63767 27.7143 3.64375 27.3864 3.65468 27.067 3.60852 26.7585 3.50528 26.0297 3.26358 25.3046 3.01338 24.5783 2.76439 23.3358 2.33807 22.092 1.91661 20.8519 1.48058 20.2228 1.25952 19.7236 1.40041 19.2766 1.89961 18.3329 2.95386 17.3624 3.98504 16.4066 5.02837 16.1333 5.32594 15.8649 5.62837 15.6025 5.93688 15.3134 6.27696 15.3426 6.45307 15.6985 6.7385 16.3519 7.26199 17.0539 7.33 17.7985 6.9632 18.543 6.59639 19.2815 6.21866 20.0236 5.84943 20.739 5.49355 20.8349 5.50934 21.3961 6.06927 23.1852 7.85713 24.973 9.64742 26.7645 11.4329 26.9188 11.5859 27.0402 11.7875 27.3293 11.8567 28.1504 11.4851 29.0261 11.1316 29.8763 10.6167 29.3856 8.30288 28.8998 6.01825 28.4188 3.7652ZM13.5608 14.4523C13.4151 14.4511 13.273 14.4851 13.1697 14.5859 12.7385 15.0074 12.3001 15.424 11.8956 15.8685 11.6818 16.1041 11.7207 16.3969 11.9199 16.6398 12.1373 16.9033 12.4422 16.992 12.724 16.8183 12.9778 16.6616 13.211 16.4612 13.4248 16.2523 13.6823 16.0009 13.9519 15.7483 14.1207 15.4252 14.3794 14.9296 14.0855 14.4341 13.5608 14.4523ZM11.8349 13.7223C11.8106 13.5037 11.6989 13.3155 11.4948 13.2001 11.2458 13.0592 10.9737 13.0555 10.7563 13.2377 10.341 13.5875 9.94257 13.9628 9.6122 14.3952 9.39115 14.6843 9.45309 15.0268 9.70937 15.2685 9.95471 15.4993 10.2887 15.5078 10.5766 15.2418 10.9458 14.9005 11.2932 14.5349 11.643 14.1717 11.7547 14.0564 11.8288 13.9094 11.8349 13.7223ZM9.08872 12.7725C9.10208 12.2746 8.60045 11.8762 8.21908 12.0827 7.77454 12.3231 7.39437 12.6742 7.20004 13.1624 7.0968 13.4199 7.23041 13.641 7.43081 13.8013 7.63 13.9604 7.87171 14.0551 8.10369 13.8972 8.45713 13.6592 8.74742 13.3446 9.00491 13.0057 9.062 12.9317 9.07293 12.8211 9.08872 12.7725ZM15.209 16.7576C14.6576 16.9956 14.275 17.3673 14.0685 17.8944 14.3503 18.407 14.5665 18.4774 14.9685 18.2042 15.1847 18.0572 15.3705 17.8714 15.5151 17.6527 15.7653 17.2714 15.7082 17.088 15.209 16.7576Z" fill="#FFBF47" transform="matrix(1 0 0 1.0043 506.015 191)"/></g></svg>