<svg width="28" height="33" xmlns="http://www.w3.org/2000/svg" xmlns:xlink="http://www.w3.org/1999/xlink" xml:space="preserve" overflow="hidden"><defs><clipPath id="clip0"><rect x="74" y="115" width="28" height="33"/></clipPath></defs><g clip-path="url(#clip0)" transform="translate(-74 -115)"><path d="M27.7158 10.0085C27.7792 12.4253 27.7574 14.8421 27.414 17.2415 26.935 20.5769 25.9267 23.7067 23.8576 26.4319 22.0335 28.8378 19.678 30.5591 16.9768 31.8364 16.1763 32.2148 15.343 32.5254 14.5228 32.8622 14.1619 33.0109 13.7835 33.0481 13.4139 32.9191 10.1485 31.7621 7.1761 30.137 4.81396 27.5365 2.63335 25.1371 1.3473 22.2982 0.691145 19.1508-0.0852996 15.4239-0.0787381 11.6532 0.0962354 7.87381 0.120294 7.3467 0.109358 6.81522 0.111546 6.28811 0.11592 5.15516 0.472428 4.82271 1.59226 4.77896 4.1753 4.68054 6.70148 4.31091 9.05707 3.14952 10.424 2.47587 11.6532 1.61413 12.7731 0.586161 13.6239-0.192471 14.1357-0.199032 14.9755 0.581787 17.6526 3.07297 20.8437 4.36559 24.4613 4.68054 25.0431 4.73085 25.6249 4.79646 26.211 4.79427 27.2543 4.79209 27.6917 5.21202 27.7114 6.26842 27.7333 7.51511 27.7158 8.76398 27.7158 10.0085ZM2.46931 10.9512C2.41463 12.8802 2.45838 14.8071 2.70115 16.7209 3.03798 19.3718 3.75537 21.9023 5.24702 24.1595 7.25703 27.2018 10.1594 29.0653 13.4905 30.3557 13.8666 30.5023 14.1947 30.3951 14.5294 30.2595 15.3867 29.9095 16.2288 29.5224 17.0402 29.0762 21.1084 26.8519 23.6411 23.4771 24.6538 18.9474 25.463 15.3299 25.3296 11.6642 25.253 8.00285 25.2355 7.18704 25.1809 7.18922 24.3301 7.11923 24.1245 7.10174 23.9189 7.05362 23.7133 7.03612 20.2073 6.72554 17.0774 5.47667 14.3544 3.24576 13.9826 2.94174 13.742 2.96143 13.3877 3.25669 11.9813 4.42683 10.4131 5.32357 8.70056 5.97097 6.97488 6.62275 5.18578 6.98363 3.35074 7.13892 2.56117 7.20453 2.47806 7.28327 2.46931 8.05972 2.46056 9.02207 2.46931 9.98661 2.46931 10.9512Z" fill="#FFBF47" transform="matrix(1.00883 0 0 1 74.0054 115)"/><path d="M12.3006 20.8481C11.9069 20.8962 11.6139 20.7409 11.3623 20.4916 10.3606 19.4899 9.35233 18.4969 8.36373 17.482 7.74039 16.8412 7.70977 16.1413 8.23906 15.6273 8.7618 15.1199 9.46825 15.1615 10.1003 15.7673 10.7149 16.3535 11.3208 16.9506 11.9048 17.5673 12.2022 17.8801 12.3947 17.8998 12.7184 17.5673 14.3828 15.8679 16.0713 14.1925 17.7598 12.515 18.2082 12.0688 18.72 11.9857 19.2033 12.2394 19.6451 12.4712 19.8923 13.0115 19.8004 13.5429 19.7501 13.8338 19.5948 14.0657 19.3892 14.2691 17.318 16.3381 15.2489 18.4072 13.1799 20.4785 12.9305 20.7322 12.6506 20.905 12.3006 20.8481Z" fill="#FFBF47" transform="matrix(1.00883 0 0 1 74.0054 115)"/></g></svg>