<svg width="36" height="38" xmlns="http://www.w3.org/2000/svg" xmlns:xlink="http://www.w3.org/1999/xlink" xml:space="preserve" overflow="hidden"><defs><clipPath id="clip0"><rect x="507" y="343" width="36" height="38"/></clipPath></defs><g clip-path="url(#clip0)" transform="translate(-507 -343)"><path d="M17.8657 25.218C16.9586 25.218 16.3022 24.5867 16.2658 23.6728 16.2589 23.5064 16.2612 23.3423 16.2612 23.1759 16.2612 23.0779 16.2635 22.9799 16.2612 22.8797 16.1929 22.9458 16.1245 23.0141 16.0584 23.0825 15.9513 23.1919 15.8396 23.3059 15.7165 23.4152 15.026 24.0238 14.0779 24.0306 13.458 23.4289 12.8221 22.809 12.8244 21.8131 13.4648 21.1111 13.5719 20.9949 13.6836 20.8832 13.7975 20.7738 13.8591 20.7145 13.9206 20.6553 13.9799 20.5938 13.9161 20.5938 13.85 20.5938 13.7861 20.596 13.581 20.5983 13.3668 20.5983 13.1526 20.5892 12.266 20.5482 11.6438 19.8964 11.6393 19.0075 11.6347 18.1232 12.2637 17.4486 13.1343 17.403 13.4169 17.3894 13.6973 17.3894 13.9707 17.3939 13.9548 17.378 13.9388 17.362 13.9229 17.3461 13.7588 17.1865 13.5901 17.0202 13.4306 16.8401 12.8289 16.1587 12.8358 15.1878 13.4443 14.577 14.0528 13.9685 15.026 13.9639 15.7051 14.5656 15.8852 14.7251 16.0515 14.8938 16.2111 15.0579 16.227 15.0738 16.243 15.0898 16.2589 15.1057 16.2567 14.855 16.2567 14.5952 16.2658 14.3377 16.2977 13.4147 16.9541 12.772 17.8634 12.772 17.8657 12.772 17.868 12.772 17.8725 12.772 18.791 12.7765 19.4291 13.4124 19.4588 14.3536 19.4656 14.5382 19.4633 14.7228 19.4633 14.9075 19.4633 14.9735 19.4633 15.0419 19.4633 15.108 19.5249 15.0465 19.5864 14.9849 19.6479 14.9211 19.7414 14.8254 19.8325 14.732 19.9305 14.6431 20.6644 13.9571 21.6604 13.9343 22.2962 14.5884 22.9093 15.2174 22.8842 16.1883 22.2392 16.8994 22.1686 16.9769 22.0911 17.0521 22.0136 17.125 21.9247 17.2093 21.8427 17.2891 21.7812 17.3666 21.7766 17.3734 21.772 17.3803 21.7652 17.3848 21.7812 17.3848 21.7971 17.3871 21.8153 17.3894 21.9361 17.403 22.0683 17.3985 22.2073 17.3962 22.335 17.3939 22.4694 17.3916 22.6085 17.4008 23.4472 17.4532 24.0671 18.1004 24.0853 18.9414 24.1058 19.8394 23.4927 20.5299 22.629 20.5846 22.3327 20.6029 22.0387 20.6006 21.7538 20.596 21.8062 20.6484 21.8609 20.7031 21.9133 20.7556 22.0296 20.8718 22.1481 20.988 22.262 21.1088 22.5879 21.4484 22.7475 21.8427 22.7384 22.2803L22.7384 22.2939C22.7042 22.9685 22.4147 23.4403 21.8769 23.6956 21.241 23.9964 20.6097 23.9235 20.1015 23.4905 19.926 23.3423 19.7687 23.1805 19.6183 23.0278 19.5636 22.9731 19.5112 22.9184 19.4588 22.866 19.4588 22.9572 19.4588 23.0529 19.461 23.1486 19.4633 23.3264 19.4656 23.5064 19.4588 23.6842 19.4223 24.5753 18.7796 25.2043 17.8953 25.218 17.8839 25.218 17.8748 25.218 17.8657 25.218ZM16.4048 21.7287C16.5165 21.7287 16.6304 21.7561 16.7467 21.8131 17.2116 22.0364 17.182 22.4672 17.1729 22.629 17.1706 22.6518 17.1683 22.6745 17.1706 22.6951 17.1774 22.8569 17.1751 23.0187 17.1751 23.1805 17.1729 23.3309 17.1729 23.4813 17.1774 23.6318 17.1956 24.0648 17.4509 24.3109 17.8816 24.3018 18.2759 24.2973 18.5289 24.0443 18.5471 23.6432 18.554 23.4813 18.5517 23.3195 18.5494 23.1577 18.5471 22.9458 18.5426 22.727 18.5585 22.5036 18.5927 21.9999 18.8525 21.8176 19.0052 21.7561 19.1557 21.6945 19.4679 21.6398 19.8439 21.9726 19.9966 22.1071 20.1357 22.2484 20.2701 22.3851 20.4137 22.531 20.5504 22.67 20.6918 22.7931 20.9288 22.9936 21.1726 23.0164 21.4871 22.8683 21.6512 22.7908 21.8062 22.6609 21.829 22.2506 21.8313 22.0615 21.7606 21.8974 21.6057 21.7356 21.4963 21.6216 21.3846 21.5099 21.2729 21.3983 21.1476 21.2729 21.0245 21.1498 20.9014 21.0222 20.8923 21.0108 20.8809 21.0017 20.8695 20.9926 20.7715 20.9014 20.473 20.6211 20.6462 20.1767 20.8422 19.673 21.3003 19.6753 21.478 19.6776L21.7356 19.6798C22.025 19.6844 22.3008 19.6867 22.572 19.6707 22.948 19.6479 23.1828 19.3676 23.1737 18.9574 23.1646 18.5859 22.9207 18.3306 22.5515 18.3078 22.4421 18.301 22.3327 18.3033 22.2233 18.3056 22.0615 18.3101 21.8951 18.3124 21.7173 18.2942 21.7014 18.2919 21.649 18.2987 21.6148 18.3033 21.4256 18.3283 20.9265 18.3922 20.6804 17.8657 20.4183 17.3028 20.8467 16.9677 20.988 16.8583 21.0131 16.8378 21.0404 16.8196 21.0632 16.7968 21.1635 16.6692 21.2798 16.5575 21.3823 16.4595 21.4438 16.4002 21.5054 16.3433 21.5624 16.2795 21.8837 15.9262 21.9156 15.5 21.6398 15.2174 21.3504 14.9211 20.9219 14.953 20.5482 15.304 20.4616 15.3838 20.3795 15.4704 20.2952 15.5547 20.1858 15.6664 20.0764 15.7781 19.9624 15.8806 19.9465 15.8943 19.9351 15.9102 19.9214 15.9285 19.8257 16.0424 19.5294 16.3889 19.0349 16.1997 18.5289 16.0037 18.5426 15.5456 18.5471 15.3724 18.5471 15.3519 18.5494 15.3291 18.5471 15.3086 18.5449 15.1718 18.5449 15.0328 18.5471 14.8961 18.5471 14.7228 18.5494 14.5496 18.5449 14.3764 18.5312 13.932 18.2828 13.6767 17.8657 13.6767 17.8634 13.6767 17.8634 13.6767 17.8611 13.6767 17.4395 13.6767 17.1911 13.9252 17.1751 14.3628 17.166 14.634 17.1683 14.9143 17.1706 15.1855L17.1729 15.4088C17.1729 15.5479 17.1751 15.9672 16.7353 16.1792 16.2772 16.4002 15.9649 16.0926 15.8624 15.9923L15.8442 15.9741C15.7484 15.8806 15.655 15.7849 15.5615 15.6892 15.4066 15.5296 15.2584 15.3792 15.1035 15.2425 14.7844 14.9599 14.3559 14.9485 14.0893 15.2151 13.8203 15.4841 13.8317 15.9102 14.1143 16.2293 14.2511 16.3843 14.4015 16.5324 14.561 16.6897 14.6568 16.7831 14.7525 16.8766 14.8459 16.9723L14.8664 16.9928C14.9667 17.0954 15.2744 17.403 15.0556 17.8611 14.8459 18.3033 14.4402 18.2987 14.2853 18.301L13.9935 18.2987C13.7132 18.2964 13.4488 18.2942 13.1822 18.3078 12.7925 18.3283 12.5509 18.5927 12.5532 18.9984 12.5554 19.3972 12.8016 19.6548 13.1981 19.6753 13.3873 19.6844 13.5787 19.6821 13.7816 19.6821 13.9161 19.6821 14.0505 19.6798 14.185 19.6821 14.2055 19.6821 14.2283 19.6821 14.2488 19.6821 14.4061 19.6776 14.8824 19.6616 15.0761 20.1721 15.263 20.6644 14.9188 20.9607 14.8049 21.0587 14.7889 21.0724 14.7707 21.086 14.757 21.102 14.6545 21.2137 14.5474 21.3185 14.438 21.4256 14.3377 21.5236 14.2374 21.6216 14.1417 21.7242 13.8294 22.066 13.8112 22.4968 14.0984 22.7748 14.3696 23.0392 14.7889 23.0232 15.1171 22.7315 15.2151 22.6449 15.3108 22.5469 15.4111 22.4444 15.516 22.3372 15.6231 22.2256 15.7439 22.1207 15.7598 22.1048 15.7758 22.0865 15.7895 22.0683 15.9741 21.8427 16.1837 21.7287 16.4048 21.7287ZM19.477 22.4899 19.477 22.4899 19.477 22.4899ZM17.8178 20.5345C17.811 20.5345 17.8042 20.5345 17.7973 20.5345 17.3256 20.5299 16.8925 20.3453 16.5757 20.0194 16.2612 19.6935 16.0903 19.2537 16.0949 18.7796 16.0994 18.3078 16.2817 17.8725 16.6099 17.558 16.929 17.2481 17.362 17.0771 17.827 17.0771 17.8338 17.0771 17.8406 17.0771 17.8497 17.0771 18.832 17.0885 19.5636 17.8429 19.5522 18.8297 19.5477 19.3015 19.363 19.7345 19.0371 20.0513 18.7135 20.3636 18.2828 20.5345 17.8178 20.5345ZM17.8247 17.9888C17.5968 17.9888 17.3916 18.0685 17.2412 18.2121 17.0908 18.358 17.0065 18.5631 17.0042 18.7887 17.0019 19.0212 17.0817 19.2309 17.2276 19.3836 17.3734 19.534 17.5785 19.6183 17.8042 19.6206L17.8042 19.6206C18.0412 19.6274 18.2463 19.5431 18.399 19.3972 18.5494 19.2514 18.6337 19.0463 18.636 18.8206 18.6406 18.3443 18.3033 17.9956 17.8338 17.9888 17.8338 17.9888 17.8292 17.9888 17.8247 17.9888Z" fill="#FFBF47" transform="matrix(1.00771 0 0 1 507 343.003)"/><path d="M5.09602 20.5915C5.09374 20.5915 5.09146 20.5915 5.08918 20.5915 2.91494 20.5869 1.20563 18.873 1.20107 16.6851 1.1988 15.614 1.59535 14.6248 2.3201 13.9001 3.04941 13.1708 4.04764 12.7697 5.13021 12.7697 5.13248 12.7697 5.13476 12.7697 5.13704 12.7697 7.28849 12.772 9.03882 14.5223 9.0411 16.6669 9.0411 17.7198 8.63771 18.7044 7.89928 19.4405 7.15858 20.1835 6.16263 20.5915 5.09602 20.5915ZM5.13021 13.6836C4.2915 13.6836 3.52118 13.989 2.96508 14.5474 2.41354 15.0989 2.11043 15.8578 2.11271 16.6851 2.11726 18.3625 3.42318 19.6798 5.08918 19.6821 5.09146 19.6821 5.09374 19.6821 5.09374 19.6821 5.91649 19.6821 6.68454 19.3699 7.25431 18.8001 7.81724 18.2372 8.12947 17.4805 8.12719 16.6715 8.12491 14.9986 6.80989 13.6881 5.13476 13.6859L5.13476 13.6859C5.13476 13.6836 5.13248 13.6836 5.13021 13.6836Z" fill="#FFBF47" transform="matrix(1.00771 0 0 1 507 343.003)"/><path d="M30.6422 20.5915C29.571 20.5915 28.5705 20.1835 27.8253 19.4451 27.0891 18.7158 26.6834 17.7403 26.6812 16.6988 26.6743 14.5405 28.4133 12.7788 30.5579 12.772 30.5624 12.772 30.567 12.772 30.5738 12.772 32.8142 12.772 34.5098 14.438 34.5212 16.6555L34.5212 16.6555C34.5258 17.713 34.1315 18.7021 33.4113 19.4405 32.6888 20.179 31.7134 20.5892 30.665 20.5938 30.6559 20.5915 30.649 20.5915 30.6422 20.5915ZM30.5716 13.6836C30.567 13.6836 30.5624 13.6836 30.5602 13.6836 28.8919 13.6881 27.5882 15.0123 27.5928 16.6965 27.5951 17.4942 27.905 18.2395 28.468 18.7978 29.0423 19.3676 29.8149 19.6798 30.6422 19.6798 30.6468 19.6798 30.6536 19.6798 30.6582 19.6798 31.4604 19.6753 32.2057 19.363 32.7572 18.8001 33.3087 18.2349 33.6118 17.476 33.6073 16.6578 33.5982 14.9325 32.3219 13.6836 30.5716 13.6836Z" fill="#FFBF47" transform="matrix(1.00771 0 0 1 507 343.003)"/><path d="M17.8566 7.85598C16.8082 7.85598 15.8191 7.44119 15.067 6.68909 14.3172 5.937 13.9092 4.94788 13.9183 3.90406 13.9388 1.75489 15.7006 0.00455816 17.8497 0L17.8497 0C17.852 0 17.8543 0 17.8566 0 18.9141 0 19.9077 0.414792 20.6576 1.16689 21.4028 1.91443 21.8085 2.90355 21.8017 3.94964 21.788 6.09425 20.0263 7.84687 17.8748 7.85598 17.868 7.85598 17.8634 7.85598 17.8566 7.85598ZM17.852 0.911631C16.202 0.91391 14.8459 2.26085 14.8322 3.90862 14.8254 4.7063 15.1399 5.46523 15.7165 6.04412 16.2977 6.62756 17.0589 6.94435 17.8725 6.94435 19.5271 6.93751 20.8809 5.59058 20.8923 3.94281 20.8969 3.14057 20.5869 2.38392 20.0149 1.80959 19.436 1.2307 18.6702 0.911631 17.8566 0.911631 17.8543 0.911631 17.8543 0.911631 17.852 0.911631L17.852 0.911631Z" fill="#FFBF47" transform="matrix(1.00771 0 0 1 507 343.003)"/><path d="M17.8589 33.3543C17.8589 33.3543 17.8566 33.3543 17.8589 33.3543 16.8014 33.3543 15.8077 32.935 15.0579 32.176 14.3126 31.4216 13.9092 30.4303 13.9206 29.3864 13.9457 27.2509 15.712 25.5143 17.8611 25.5143 17.8634 25.5143 17.8634 25.5143 17.8657 25.5143 20.0149 25.5166 21.7812 27.2578 21.8017 29.3955 21.8108 30.4394 21.4074 31.4285 20.6621 32.1806 19.9123 32.9372 18.9163 33.3543 17.8589 33.3543ZM17.8611 26.4259C16.2088 26.4259 14.8505 27.7569 14.8322 29.3978 14.8231 30.1978 15.1331 30.9567 15.7051 31.5356 16.2817 32.119 17.0475 32.4427 17.8566 32.4427 17.8566 32.4427 17.8589 32.4427 17.8589 32.4427 18.6702 32.4427 19.436 32.1213 20.0126 31.5402 20.5846 30.9636 20.8969 30.2046 20.8878 29.4047 20.8718 27.7637 19.5157 26.4282 17.8634 26.4259 17.8634 26.4259 17.8634 26.4259 17.8611 26.4259Z" fill="#FFBF47" transform="matrix(1.00771 0 0 1 507 343.003)"/><path d="M19.8964 37.9945C19.5636 37.9945 19.2331 37.9945 18.9072 37.9922 18.5654 37.9922 18.2258 37.99 17.8794 37.99L16.8697 37.99C16.0994 37.99 15.3314 37.9922 14.561 37.9877 13.9662 37.9831 13.5058 37.8122 13.1913 37.4772 12.8791 37.1444 12.74 36.6818 12.7742 36.0983 12.8449 34.8767 13.3212 33.7828 14.1895 32.8461 14.5314 32.4791 14.9211 32.4427 15.3473 32.7367 17.0452 33.9081 18.6976 33.9036 20.3932 32.7253 20.8011 32.4404 21.1749 32.47 21.5008 32.8164 22.433 33.8078 22.9207 34.9679 22.948 36.2624 22.9594 36.7615 22.8067 37.1877 22.5105 37.4954 22.2096 37.8076 21.7766 37.9763 21.2638 37.9831 20.8103 37.9922 20.3522 37.9945 19.8964 37.9945ZM17.9158 37.0783C18.2463 37.0783 18.579 37.0783 18.9095 37.0806 19.6776 37.0829 20.473 37.0852 21.2524 37.076 21.437 37.0738 21.6923 37.035 21.8564 36.8664 21.9817 36.7365 22.0432 36.5405 22.0387 36.2852 22.0159 35.23 21.6398 34.3161 20.8855 33.4956 18.8799 34.8767 16.8424 34.8767 14.8345 33.4933 14.128 34.2659 13.7428 35.1593 13.6836 36.153 13.6654 36.4766 13.7223 36.7137 13.8568 36.855 13.9935 37.0008 14.2328 37.076 14.5679 37.0783 15.3359 37.0829 16.1017 37.0829 16.8697 37.0806L17.8816 37.0806C17.893 37.0783 17.9044 37.0783 17.9158 37.0783Z" fill="#FFBF47" transform="matrix(1.00771 0 0 1 507 343.003)"/><path d="M7.14263 25.2203C6.80077 25.2203 6.45891 25.2203 6.11477 25.2203L5.08918 25.2203 4.07499 25.2203C3.28643 25.2203 2.49787 25.2226 1.70931 25.218 1.18284 25.2134 0.724747 25.0266 0.414792 24.6915 0.116233 24.3679-0.0273489 23.9189 0.00911631 23.4266 0.104838 22.1572 0.56749 21.0587 1.38796 20.163 1.76629 19.7505 2.18108 19.7072 2.65968 20.0308 4.33025 21.159 5.95067 21.1498 7.60984 20.0012 8.05654 19.6912 8.4531 19.7391 8.82231 20.1471 9.73394 21.1544 10.192 22.3031 10.1898 23.5611 10.1875 24.5753 9.55389 25.2112 8.53515 25.218 8.07022 25.2203 7.60528 25.2203 7.14263 25.2203ZM5.08918 24.3064 6.11705 24.3064C6.92156 24.3086 7.7238 24.3086 8.52831 24.3041 9.03655 24.2995 9.27585 24.0625 9.27585 23.5566 9.27813 22.5196 8.90892 21.6034 8.14315 20.7556 8.13859 20.751 8.13631 20.7464 8.13175 20.7442 8.12947 20.7464 8.12719 20.7464 8.12491 20.7487 6.14895 22.1139 4.13653 22.1253 2.14689 20.7829 2.12182 20.767 2.10131 20.7533 2.08764 20.7442 2.07852 20.7533 2.0694 20.7624 2.05801 20.7761 1.36973 21.5282 0.995957 22.4147 0.916189 23.4927 0.897957 23.732 0.954934 23.9326 1.08484 24.0716 1.22387 24.222 1.44266 24.3018 1.71615 24.3041 2.50243 24.3086 3.28871 24.3086 4.07499 24.3064L5.08918 24.3064Z" fill="#FFBF47" transform="matrix(1.00771 0 0 1 507 343.003)"/><path d="M32.6387 25.2203C32.2945 25.2203 31.9504 25.2203 31.6085 25.2203L30.5784 25.2203 29.5688 25.2203C28.7779 25.2203 27.9871 25.2226 27.1962 25.218 26.1775 25.2112 25.5416 24.5799 25.5348 23.5702 25.528 22.3236 25.9838 21.1749 26.8931 20.1539 27.3854 19.6001 27.8526 19.8234 28.1603 20.0399 29.7032 21.1225 31.4672 21.1339 33.0033 20.0718 33.703 19.5864 34.1474 19.9465 34.4232 20.261 35.1685 21.1088 35.5901 22.1185 35.7154 23.3469 35.7679 23.8642 35.6288 24.336 35.3212 24.6779 35.0112 25.0243 34.5508 25.2157 34.0244 25.218 33.5617 25.2203 33.0991 25.2203 32.6387 25.2203ZM30.5784 24.3064 31.6085 24.3064C32.4108 24.3064 33.213 24.3086 34.0152 24.3041 34.2865 24.3018 34.503 24.2198 34.6397 24.0671 34.7742 23.9166 34.8312 23.6979 34.8061 23.4358 34.7012 22.4033 34.3503 21.5601 33.7349 20.8581 33.6848 20.8011 33.6506 20.7692 33.6301 20.751 33.6073 20.7624 33.5731 20.7806 33.5207 20.8171 31.6815 22.0911 29.4822 22.0797 27.6361 20.7829 27.6156 20.7692 27.5974 20.7578 27.5837 20.7464 27.5814 20.7487 27.5791 20.7533 27.5746 20.7556 26.8111 21.6148 26.4419 22.5332 26.4464 23.5611 26.4487 24.0716 26.6812 24.2995 27.2008 24.3041 27.9894 24.3086 28.7779 24.3086 29.5665 24.3064L30.5784 24.3064Z" fill="#FFBF47" transform="matrix(1.00771 0 0 1 507 343.003)"/><path d="M15.8669 12.4848C15.4271 12.4848 14.9827 12.4825 14.5451 12.478 13.948 12.4711 13.4899 12.2979 13.1799 11.9629 12.8722 11.6301 12.7355 11.1652 12.7742 10.5795 12.854 9.36473 13.3235 8.28901 14.1667 7.38193 14.5314 6.98993 14.928 6.95347 15.3815 7.26798 17.027 8.4098 18.6907 8.41208 20.3271 7.27938 20.5163 7.14947 21.0177 6.80077 21.5441 7.37054 22.4489 8.35282 22.9207 9.49692 22.948 10.7709 22.9594 11.2655 22.809 11.6871 22.5173 11.9925 22.2256 12.2979 21.8108 12.4643 21.3208 12.4734 20.5094 12.4893 19.6867 12.4871 18.8913 12.4825 18.6816 12.4825 18.4719 12.4802 18.2623 12.4802L17.868 12.4848C17.5352 12.4848 17.2002 12.4848 16.8675 12.4871 16.5393 12.4848 16.2042 12.4848 15.8669 12.4848ZM14.8391 7.99956C14.8391 7.99956 14.8368 8.00184 14.8368 8.00184 14.1394 8.75166 13.752 9.63822 13.6859 10.6387 13.6654 10.9646 13.7201 11.2039 13.85 11.3453 13.9821 11.4888 14.2214 11.564 14.5565 11.5686 15.3245 11.5777 16.1085 11.5754 16.8652 11.5732 17.0475 11.5732 17.2298 11.5732 17.4144 11.5709L17.4144 11.5663 17.8703 11.5663C18.2121 11.5663 18.5563 11.5686 18.8981 11.5686 19.689 11.5709 20.5049 11.5754 21.3048 11.5595 21.4735 11.5572 21.7082 11.5185 21.8609 11.3589 22.0136 11.1994 22.0432 10.9601 22.0387 10.7892 22.0159 9.73394 21.6376 8.82231 20.8855 7.99956 20.8741 8.0064 20.8604 8.01552 20.8467 8.02691 18.8936 9.38069 16.8242 9.37613 14.8619 8.01552 14.8528 8.00868 14.8459 8.00412 14.8391 7.99956Z" fill="#FFBF47" transform="matrix(1.00771 0 0 1 507 343.003)"/></g></svg>