<svg width="39" height="28" xmlns="http://www.w3.org/2000/svg" xmlns:xlink="http://www.w3.org/1999/xlink" xml:space="preserve" overflow="hidden"><defs><clipPath id="clip0"><rect x="63" y="348" width="39" height="28"/></clipPath></defs><g clip-path="url(#clip0)" transform="translate(-63 -348)"><path d="M28.9531 0.083672C28.961 2.43172 28.9583 4.79414 28.9544 7.12519 28.6603 7.25201 28.4485 7.23762 28.1556 7.1631 28.0785 6.49896 28.1295 5.80736 28.1203 5.12099 28.1112 4.42415 28.1177 3.72732 28.1177 3.02919 28.1177 2.33497 28.1177 1.63945 28.1177 0.962228 27.6144 0.813187 1.77149 0.770043 0.858945 0.899474 0.758277 1.40281 0.733437 17.341 0.843256 18.2052 2.25653 18.2405 3.68549 18.2156 5.11314 18.2196 6.55125 18.2248 7.98937 18.2209 9.42617 18.2209 10.863 18.2209 12.3024 18.2209 13.7392 18.2209 15.1721 18.2209 16.6037 18.2209 18.1019 18.2209 17.9686 18.5739 17.7097 18.7085 17.5005 18.8733 16.7592 19.4524 16.4245 20.1872 16.6664 21.1115 16.9213 22.0855 17.5254 22.7496 18.5229 23.0216 18.9295 23.1327 19.3426 23.1183 19.7557 23.1196 20.1453 23.1196 20.5336 23.1196 21.0173 23.1196 21.0291 24.227 21.0278 25.2794 21.016 26.3148 20.4408 26.4613 8.59206 26.473 7.95407 26.3371 7.95407 25.3095 7.95407 24.2714 7.95407 23.2255 8.16063 23.0477 8.41034 23.1366 8.63913 23.1222 9.15946 23.0895 9.68111 23.1601 10.2014 23.0555 11.5964 22.7758 12.4815 21.5168 12.2475 20.1192 12.1913 19.7871 12.0265 19.5165 11.6003 19.0929 9.71379 19.0929 7.77757 19.0929 5.84004 19.0929 3.90643 19.0929 1.97283 19.0929-0.00261475 19.0929 0 12.7142 0 6.40875 0 0.10459 0.478499-0.0143811 28.1112-0.0457581 28.9531 0.083672ZM20.1205 25.5853C20.1388 25.0022 20.229 24.491 20.0708 23.9982 18.851 23.8727 9.24444 23.9236 8.76595 24.0596 8.76595 24.5656 8.68881 25.0781 8.81563 25.5853 12.5848 25.5853 16.3186 25.5853 20.1205 25.5853ZM12.0618 23.0778C13.6712 23.0778 15.227 23.0778 16.8743 23.0778 15.7944 21.875 15.4153 20.6029 16.1225 19.1321 14.993 19.1321 13.9144 19.1321 12.8227 19.1321 13.347 20.6735 13.3025 21.4671 12.0618 23.0778Z" fill="#FFBF47" transform="matrix(1.02783 0 0 1 63 348.008)"/><path d="M37.9439 25.452C37.0915 26.3044 36.2313 27.1633 35.4128 27.983 32.8269 25.3814 30.2082 22.7483 27.5202 20.0434 27.6405 19.7479 28.1373 19.5452 28.3726 19.0811 28.1543 18.7451 27.851 18.481 27.5398 18.2261 24.3119 20.7467 20.5794 19.808 18.6288 17.4691 16.639 15.0832 16.7632 11.518 18.8759 9.22875 21.0461 6.87679 24.8087 6.6663 27.2431 8.54369 29.3911 10.2001 30.9508 13.9732 28.1922 17.6012 28.4655 17.8783 28.7374 18.1529 29.0302 18.4484 29.4408 18.2039 29.6905 17.7672 30.05 17.541 32.7066 20.2042 35.3344 22.8372 37.9439 25.452ZM21.4331 16.937C20.735 17.0704 20.08 16.937 19.4276 17.0299 20.8265 18.9635 24.1407 19.5387 26.4351 17.9934 28.8524 16.3657 29.5623 13.1182 28.0157 10.6224 26.4207 8.0482 23.215 7.59846 21.4344 8.56069 21.4331 11.3232 21.4331 14.121 21.4331 16.937ZM28.6799 20.0839C30.9573 22.3639 33.2073 24.6166 35.4743 26.8862 35.9266 26.4469 36.4339 25.9841 36.8366 25.5108 34.55 23.2177 32.3039 20.9651 30.0461 18.7007 29.5976 19.1543 29.127 19.6315 28.6799 20.0839ZM20.5938 8.94767C18.1359 10.2694 17.2547 13.9183 18.7987 16.1252 19.3766 16.1343 19.9754 16.1984 20.5938 16.0794 20.5938 13.6947 20.5938 11.3506 20.5938 8.94767Z" fill="#FFBF47" transform="matrix(1.02783 0 0 1 63 348.008)"/><path d="M12.7443 2.24345C13.9013 2.24345 15.0047 2.24345 16.1565 2.24345 16.1565 7.14611 16.1565 12.0252 16.1565 16.9514 15.0217 16.9514 13.9065 16.9514 12.7443 16.9514 12.7443 12.0448 12.7443 7.18271 12.7443 2.24345ZM15.3316 16.082C15.3316 11.7167 15.3316 7.41412 15.3316 3.03965 15.023 3.03965 14.7446 3.03965 14.4674 3.03965 14.1902 3.03965 13.9131 3.03965 13.6189 3.03965 13.6189 7.43373 13.6189 11.7546 13.6189 16.1186 14.202 16.1317 14.738 16.184 15.3316 16.082Z" fill="#FFBF47" transform="matrix(1.02783 0 0 1 63 348.008)"/><path d="M7.46903 7.86386C8.60122 7.86386 9.68241 7.86386 10.7597 7.86386 10.9087 8.33451 10.9427 16.1866 10.7963 16.9527 9.70856 16.9527 8.61168 16.9527 7.46903 16.9527 7.46903 13.9248 7.46903 10.9323 7.46903 7.86386ZM10.0145 16.0859C10.0145 13.5889 10.0145 11.1624 10.0145 8.69535 9.40264 8.65613 8.83131 8.65351 8.26914 8.68881 8.26914 11.2003 8.26914 13.6307 8.26914 16.1121 8.85746 16.1422 9.41048 16.184 10.0145 16.0859Z" fill="#FFBF47" transform="matrix(1.02783 0 0 1 63 348.008)"/><path d="M2.21338 16.9763C2.21338 14.8675 2.21338 12.8528 2.21338 10.8041 3.3508 10.8041 4.44638 10.8041 5.57726 10.8041 5.57726 12.8659 5.57726 14.8805 5.57726 16.9906 4.45945 16.9985 3.36257 17.0129 2.21338 16.9763ZM3.0318 11.5938C3.0318 13.1326 3.0318 14.6021 3.0318 16.0938 3.62796 16.1631 4.18098 16.1735 4.72616 16.0912 4.85297 15.3159 4.82552 12.0592 4.69086 11.5925 4.15614 11.5938 3.6175 11.5938 3.0318 11.5938Z" fill="#FFBF47" transform="matrix(1.02783 0 0 1 63 348.008)"/><path d="M26.6992 16.954C25.5696 16.954 24.474 16.954 23.3876 16.954 23.2451 16.4664 23.2033 11.7624 23.334 10.8133 24.4322 10.7022 25.5435 10.761 26.6404 10.7832 26.7894 11.2931 26.8312 15.9827 26.6992 16.954ZM24.1145 16.1095C24.7591 16.1369 25.333 16.2062 25.9095 16.0676 25.9095 14.5615 25.9095 13.0947 25.9095 11.6003 25.2859 11.569 24.712 11.5101 24.1145 11.6382 24.1145 13.126 24.1145 14.5759 24.1145 16.1095Z" fill="#FFBF47" transform="matrix(1.02783 0 0 1 63 348.008)"/></g></svg>