<svg width="34" height="34" xmlns="http://www.w3.org/2000/svg" xmlns:xlink="http://www.w3.org/1999/xlink" xml:space="preserve" overflow="hidden"><defs><clipPath id="clip0"><rect x="68" y="196" width="34" height="34"/></clipPath></defs><g clip-path="url(#clip0)" transform="translate(-68 -196)"><path d="M84.9826 229.999C75.6496 230.012 68 222.373 68 212.999 68 203.638 75.6471 195.98 85.0497 196.001 94.3752 196.022 102.019 203.651 102 213.035 101.981 222.418 94.302 230.04 84.9826 229.999ZM85.7722 228.541C88.2389 228.393 90.5032 227.759 92.6186 226.532 92.3629 225.865 91.9085 225.369 91.7744 224.718 92.2449 225.2 92.4808 225.841 92.8905 226.347 94.7315 225.481 97.6799 222.56 98.3192 220.85 97.8028 220.475 97.1771 220.254 96.7277 219.764 97.3683 219.914 97.8636 220.372 98.4607 220.588 99.4824 219.434 100.716 215.235 100.432 213.712 100.217 213.712 99.9926 213.712 99.7679 213.712 98.858 213.712 97.948 213.718 97.0368 213.709 96.462 213.705 96.3242 213.589 96.107 213.004 96.3168 212.417 96.4583 212.298 97.0294 212.292 98.0014 212.283 98.9734 212.292 99.9467 212.287 100.125 212.286 100.319 212.334 100.524 212.175 100.495 211.543 100.412 210.896 100.299 210.248 100.03 208.688 99.5047 207.221 98.781 205.819 98.6991 205.66 98.6457 205.465 98.3937 205.419 98.128 205.569 97.84 205.73 97.5545 205.893 96.9797 206.222 96.9797 206.224 96.6408 206.16 97.2466 205.798 97.8028 205.465 98.3949 205.111 96.9996 202.789 95.1945 200.976 92.9066 199.614 92.4746 200.19 92.2573 200.824 91.7645 201.275 91.9122 200.635 92.3691 200.14 92.5913 199.546 91.5038 198.543 87.2793 197.284 85.7647 197.551 85.6803 197.747 85.7175 197.956 85.7163 198.158 85.7113 199.089 85.72 200.02 85.7113 200.951 85.7064 201.563 85.576 201.714 84.9553 201.889 84.4426 201.765 84.28 201.413 84.2874 200.919 84.3011 199.968 84.2936 199.016 84.2887 198.064 84.2874 197.884 84.3309 197.693 84.2179 197.516 83.8641 197.401 83.524 197.533 83.1813 197.566 81.2658 197.752 79.4807 198.364 77.7787 199.238 77.6371 199.31 77.4683 199.37 77.4186 199.607 77.5627 199.861 77.7439 200.14 77.8829 200.436 78.0096 200.707 78.3087 200.922 78.1387 201.32 77.806 200.764 77.4733 200.208 77.1133 199.606 74.7993 200.999 72.9831 202.805 71.6113 205.101 72.1848 205.515 72.8031 205.756 73.2798 206.224 72.6218 206.1 72.1302 205.597 71.5145 205.414 70.4406 206.821 69.3382 210.613 69.5381 212.233 69.7281 212.329 69.9379 212.287 70.139 212.288 71.0291 212.293 71.9179 212.289 72.808 212.292 72.9731 212.292 73.1432 212.284 73.3021 212.318 73.6125 212.384 73.8719 212.687 73.8893 212.968 73.9079 213.266 73.6423 213.61 73.3058 213.685 73.1469 213.721 72.9769 213.712 72.8117 213.712 71.8807 213.714 70.9496 213.709 70.0185 213.716 69.841 213.717 69.6424 213.656 69.4972 213.819 69.4264 215.765 70.5673 219.522 71.5691 220.609 71.8447 220.453 72.124 220.278 72.4182 220.133 72.695 219.996 72.9185 219.714 73.3865 219.768 72.813 220.253 72.1873 220.485 71.6672 220.861 72.3127 222.517 75.4969 225.762 77.148 226.309 77.5341 225.803 77.7526 225.183 78.2231 224.731 78.1101 225.392 77.6073 225.868 77.4162 226.476 78.6228 227.507 82.9119 228.757 84.2887 228.429 84.2887 227.426 84.2887 226.414 84.2887 225.402 84.2887 225.216 84.2775 225.029 84.2961 224.844 84.3383 224.428 84.6586 224.113 85.0124 224.121 85.3662 224.13 85.6654 224.448 85.7064 224.869 85.7188 224.992 85.7113 225.117 85.7113 225.241 85.7113 226.027 85.7076 226.813 85.7138 227.6 85.7163 227.884 85.6803 228.173 85.7722 228.541Z" fill="#FFBF47"/><path d="M85.0074 214.134C84.5034 214.559 84.0528 214.952 83.5873 215.327 83.0721 215.743 82.5184 216.099 81.9176 216.387 80.7134 216.963 79.2373 216.536 78.4254 215.596 77.2337 214.216 77.225 211.83 78.4031 210.437 79.2485 209.437 80.7717 209.063 81.9461 209.63 82.8312 210.057 83.596 210.648 84.3296 211.287 84.5456 211.475 84.7554 211.669 84.9839 211.873 85.4891 211.449 85.9534 211.044 86.4338 210.659 86.9341 210.257 87.4717 209.913 88.0514 209.631 89.2233 209.063 90.7354 209.429 91.5957 210.436 92.7738 211.815 92.7638 214.23 91.5758 215.595 90.7416 216.554 89.2332 216.968 88.0266 216.367 87.1663 215.939 86.4127 215.369 85.694 214.742 85.4767 214.551 85.2619 214.359 85.0074 214.134ZM84.1062 213.004C83.2868 212.171 82.4737 211.477 81.5203 210.965 80.6761 210.51 79.7649 210.76 79.2795 211.599 78.7408 212.53 78.7482 213.495 79.2907 214.422 79.7389 215.187 80.6339 215.483 81.3775 215.112 82.4005 214.601 83.2558 213.861 84.1062 213.004ZM85.8938 213.001C86.6921 213.82 87.5077 214.51 88.4536 215.028 89.3003 215.491 90.2189 215.253 90.708 214.425 91.2555 213.497 91.2592 212.529 90.7192 211.6 90.1618 210.641 89.0905 210.567 88.4151 210.982 87.5126 211.536 86.6933 212.184 85.8938 213.001Z" fill="#FFBF47"/></g></svg>