<svg width="27" height="27" xmlns="http://www.w3.org/2000/svg" xmlns:xlink="http://www.w3.org/1999/xlink" xml:space="preserve" overflow="hidden"><defs><clipPath id="clip0"><rect x="512" y="117" width="27" height="27"/></clipPath></defs><g clip-path="url(#clip0)" transform="translate(-512 -117)"><path d="M528.093 135.779C527.729 135.424 527.384 135.086 527.016 134.726 524.61 136.243 521.991 136.727 519.206 136.002 516.906 135.405 515.065 134.1 513.703 132.141 511.078 128.368 511.507 123.025 514.938 119.702 518.324 116.422 523.62 116.133 527.339 118.809 530.943 121.404 532.907 126.958 529.73 132.039 529.849 132.256 530.06 132.401 530.226 132.586 530.382 132.76 530.54 132.936 530.718 133.087 530.824 133.091 530.891 133.051 530.964 133.02 531.644 132.721 532.237 132.842 532.762 133.374 533.887 134.513 535.024 135.642 536.157 136.776 536.945 137.564 537.73 138.356 538.524 139.139 538.831 139.443 539 139.795 538.994 140.229 538.99 140.587 538.891 140.912 538.632 141.172 537.823 141.984 537.025 142.807 536.198 143.6 535.61 144.165 534.775 144.127 534.172 143.531 533.088 142.461 532.014 141.38 530.937 140.303 530.115 139.481 529.294 138.659 528.474 137.837 527.793 137.155 527.705 136.695 528.093 135.779ZM521.641 135.529C526.657 135.584 530.514 131.405 530.545 126.718 530.575 122.095 526.9 117.799 521.727 117.761 516.81 117.726 512.813 121.616 512.775 126.584 512.737 131.703 516.889 135.563 521.641 135.529ZM533.429 141.633C533.967 141.22 536.454 138.694 536.634 138.376 536.576 138.311 536.518 138.239 536.453 138.174 535.045 136.765 533.637 135.357 532.228 133.948 532.184 133.904 532.141 133.857 532.093 133.817 531.795 133.57 531.441 133.556 531.162 133.828 530.376 134.594 529.6 135.37 528.833 136.156 528.557 136.44 528.572 136.784 528.826 137.085 528.886 137.156 528.956 137.221 529.023 137.287 530.364 138.63 531.705 139.972 533.047 141.312 533.157 141.422 533.25 141.553 533.429 141.633ZM534.068 142.295C534.063 142.28 534.066 142.316 534.086 142.337 534.238 142.496 534.401 142.644 534.545 142.81 535.028 143.362 535.436 143.315 535.924 142.8 536.539 142.15 537.186 141.53 537.818 140.896 537.906 140.808 537.999 140.72 538.074 140.62 538.288 140.337 538.301 140.07 538.073 139.805 537.829 139.522 537.573 139.247 537.302 139.045 536.225 140.127 535.167 141.191 534.068 142.295ZM529.219 132.73C528.969 132.994 528.739 133.247 528.497 133.489 528.247 133.739 527.987 133.977 527.722 134.23 528.032 134.586 528.329 134.882 528.622 135.138 529.132 134.639 529.629 134.153 530.144 133.649 529.878 133.32 529.572 133.02 529.219 132.73Z" fill="#FFBF47"/><path d="M521.647 133.608C518.007 133.645 514.685 130.715 514.702 126.628 514.718 122.706 517.827 119.672 521.703 119.695 525.838 119.721 528.653 123.124 528.625 126.707 528.595 130.454 525.53 133.656 521.647 133.608ZM515.49 126.654C515.414 129.741 517.928 132.843 521.676 132.837 525.17 132.831 527.862 130.088 527.848 126.634 527.833 122.939 524.809 120.474 521.678 120.469 518.221 120.465 515.414 123.356 515.49 126.654Z" fill="#FFBF47"/><path d="M517.963 127.197C518.823 127.197 519.716 127.19 520.607 127.201 520.908 127.205 521.035 127.331 521.04 127.64 521.053 128.44 521.053 129.239 521.042 130.038 521.037 130.39 520.882 130.532 520.506 130.544 520.067 130.558 519.628 130.548 519.19 130.549 518.877 130.549 518.563 130.557 518.25 130.546 517.85 130.531 517.706 130.392 517.701 130.006 517.693 129.239 517.7 128.471 517.697 127.703 517.695 127.519 517.729 127.359 517.963 127.197ZM518.519 129.753C519.042 129.753 519.51 129.754 519.979 129.752 520.055 129.752 520.137 129.76 520.197 129.695 520.287 129.182 520.271 128.326 520.155 127.963 519.625 127.946 519.084 127.924 518.518 127.979 518.519 128.576 518.519 129.133 518.519 129.753Z" fill="#FFBF47"/><path d="M520.824 122.886C520.958 122.992 521.032 123.083 521.032 123.196 521.036 124.075 521.036 124.953 521.031 125.831 521.03 125.943 520.95 126.032 520.825 126.134 519.879 126.134 518.894 126.134 517.932 126.134 517.74 126.02 517.696 125.865 517.696 125.68 517.699 124.896 517.698 124.11 517.696 123.326 517.696 123.16 517.735 123.016 517.919 122.885 518.86 122.886 519.844 122.886 520.824 122.886ZM520.195 125.39C520.293 124.774 520.271 123.958 520.146 123.601 519.895 123.601 519.63 123.593 519.366 123.604 519.09 123.615 518.806 123.548 518.543 123.657 518.449 124.224 518.47 125.058 518.588 125.39 519.112 125.39 519.64 125.39 520.195 125.39Z" fill="#FFBF47"/><path d="M525.527 122.984C525.686 123.518 525.654 125.714 525.481 126.084 525.372 126.162 525.244 126.161 525.12 126.162 524.351 126.165 523.584 126.17 522.815 126.161 522.366 126.155 522.306 126.087 522.304 125.629 522.299 124.861 522.298 124.093 522.304 123.325 522.308 122.959 522.389 122.867 522.74 122.862 523.555 122.852 524.37 122.858 525.185 122.86 525.295 122.861 525.407 122.866 525.527 122.984ZM523.064 125.405C523.691 125.403 524.247 125.435 524.792 125.386 524.892 124.816 524.874 123.957 524.752 123.61 524.207 123.609 523.652 123.569 523.066 123.637 523.03 124.233 523.033 124.787 523.064 125.405Z" fill="#FFBF47"/><path d="M524.422 127.693C524.657 127.693 524.861 127.678 525.063 127.697 525.345 127.723 525.493 127.881 525.484 128.107 525.474 128.326 525.312 128.468 525.034 128.49 524.924 128.498 524.814 128.49 524.705 128.493 524.612 128.496 524.52 128.505 524.412 128.511 524.288 128.786 524.363 129.07 524.35 129.345 524.337 129.594 524.35 129.846 524.344 130.097 524.337 130.332 524.206 130.5 523.982 130.523 523.53 130.569 523.075 130.575 522.622 130.518 522.515 130.505 522.416 130.445 522.351 130.348 522.294 129.873 522.37 129.775 522.81 129.755 523.04 129.744 523.276 129.786 523.552 129.705 523.552 129.247 523.552 128.796 523.552 128.346 523.552 128.127 523.55 127.907 523.554 127.687 523.557 127.469 523.615 127.279 523.855 127.214 524.074 127.155 524.198 127.24 524.344 127.535 524.363 127.575 524.383 127.615 524.422 127.693Z" fill="#FFBF47"/><path d="M522.32 127.393C522.693 127.133 522.707 127.134 523.024 127.418 523.055 127.783 523.052 128.159 523.028 128.512 522.941 128.668 522.816 128.725 522.677 128.758 522.546 128.735 522.44 128.673 522.337 128.556 522.272 128.189 522.304 127.799 522.32 127.393Z" fill="#FFBF47"/></g></svg>